HIERARCHY
ROOT root
{
	OFFSET 0.000000 0.000000 0.000000
	CHANNELS 6 Xposition Yposition Zposition Zrotation Yrotation Xrotation
	JOINT lhip
	{
		OFFSET 0.058581 -0.082280 -0.017664
		CHANNELS 3 Zrotation Yrotation Xrotation
		JOINT lknee
		{
			OFFSET 0.043451 -0.386469 0.008037
			CHANNELS 3 Zrotation Yrotation Xrotation
			JOINT lankle
			{
				OFFSET -0.014790 -0.426874 -0.037428
				CHANNELS 3 Zrotation Yrotation Xrotation
				JOINT ltoe
				{
					OFFSET 0.041054 -0.060286 0.122042
					CHANNELS 3 Zrotation Yrotation Xrotation
					End Site
					{
						OFFSET 0.000000 0.000000 0.000000
					}
				}
			}
		}
	}
	JOINT rhip
	{
		OFFSET -0.060310 -0.090513 -0.013543
		CHANNELS 3 Zrotation Yrotation Xrotation
		JOINT rknee
		{
			OFFSET -0.043257 -0.383688 -0.004843
			CHANNELS 3 Zrotation Yrotation Xrotation
			JOINT rankle
			{
				OFFSET 0.019056 -0.420046 -0.034562
				CHANNELS 3 Zrotation Yrotation Xrotation
				JOINT rtoe
				{
					OFFSET -0.034840 -0.062106 0.130323
					CHANNELS 3 Zrotation Yrotation Xrotation
					End Site
					{
						OFFSET 0.000000 0.000000 0.000000
					}
				}
			}
		}
	}
	JOINT lowerback
	{
		OFFSET 0.004439 0.124404 -0.038385
		CHANNELS 3 Zrotation Yrotation Xrotation
		JOINT upperback
		{
			OFFSET 0.004488 0.137956 0.026820
			CHANNELS 3 Zrotation Yrotation Xrotation
			JOINT chest
			{
				OFFSET -0.002265 0.056032 0.002855
				CHANNELS 3 Zrotation Yrotation Xrotation
				JOINT lowerneck
				{
					OFFSET -0.013390 0.211636 -0.033468
					CHANNELS 3 Zrotation Yrotation Xrotation
					JOINT upperneck
					{
						OFFSET 0.010113 0.088937 0.050410
						CHANNELS 3 Zrotation Yrotation Xrotation
						End Site
						{
							OFFSET 0.000000 0.000000 0.000000
						}
					}
				}
				JOINT lclavicle
				{
					OFFSET 0.071702 0.114000 -0.018898
					CHANNELS 3 Zrotation Yrotation Xrotation
					JOINT lshoulder
					{
						OFFSET 0.122921 0.045205 -0.019046
						CHANNELS 3 Zrotation Yrotation Xrotation
						JOINT lelbow
						{
							OFFSET 0.255332 -0.015649 -0.022946
							CHANNELS 3 Zrotation Yrotation Xrotation
							JOINT lwrist
							{
								OFFSET 0.265709 0.012698 -0.007375
								CHANNELS 3 Zrotation Yrotation Xrotation
								End Site
								{
									OFFSET 0.000000 0.000000 0.000000
								}
							}
						}
					}
				}
				JOINT rclavicle
				{
					OFFSET -0.082954 0.112472 -0.023707
					CHANNELS 3 Zrotation Yrotation Xrotation
					JOINT rshoulder
					{
						OFFSET -0.113228 0.046853 -0.008472
						CHANNELS 3 Zrotation Yrotation Xrotation
						JOINT relbow
						{
							OFFSET -0.260127 -0.014369 -0.031269
							CHANNELS 3 Zrotation Yrotation Xrotation
							JOINT rwrist
							{
								OFFSET -0.269108 0.006794 -0.006027
								CHANNELS 3 Zrotation Yrotation Xrotation
								End Site
								{
									OFFSET 0.000000 0.000000 0.000000
								}
							}
						}
					}
				}
			}
		}
	}
}
MOTION
Frames: 8
Frame Time: 0.033333
-0.531942 0.387969 0.904470 -5.611380 -5.740003 98.644680 7.983038 7.753471 -39.789380 -14.777299 8.035683 60.509066 -9.382554 -13.040979 -15.635801 0.000000 -0.000000 0.000000 -16.645611 -6.013322 -44.790853 -4.814665 -6.248272 54.413618 7.470658 -3.368972 -18.175607 0.000000 -0.000000 0.000000 3.970238 -6.042838 48.417117 -1.654237 -0.488535 -7.829198 0.616710 -3.063761 -2.811031 -17.486220 -2.841257 -22.616206 -5.885788 1.392514 -1.079541 -28.790199 -28.506554 5.264715 -54.939566 -21.058375 28.199594 -16.520791 -47.433131 39.568146 1.892184 -22.733578 -2.073348 23.511344 25.762345 5.192222 43.078511 7.802484 4.993392 8.440780 16.722151 -28.824584 13.861128 20.410856 -41.170934 
-0.540217 0.380946 0.900949 -3.365501 -6.629883 98.310368 9.152266 9.090829 -40.399438 -13.230047 9.713527 60.563920 -9.623672 -10.424838 -15.110518 0.000000 -0.000000 0.000000 -17.191998 -7.342088 -44.268497 -4.981951 -6.687876 56.911020 6.369942 -4.424857 -20.136376 0.000000 -0.000000 0.000000 4.274041 -6.792200 48.498564 -1.743763 -0.733287 -7.644353 0.294501 -2.957877 -2.733576 -16.324534 -6.303694 -23.421747 -4.725600 -1.778966 -0.664019 -29.536314 -28.443304 5.666474 -54.474608 -21.085605 27.883210 -17.042033 -47.584288 39.854250 3.890876 -23.029337 -2.594726 23.291000 26.149283 4.967708 42.248121 7.114250 4.203856 9.812862 17.305463 -28.239855 12.775684 21.451698 -41.628677 
-0.547273 0.374664 0.897353 -1.978478 -7.438447 98.449094 10.471550 9.841040 -40.379566 -9.185087 12.368651 57.682537 -8.195381 -4.818822 -15.682112 0.000000 -0.000000 0.000000 -18.035599 -7.288868 -44.720828 -5.444937 -7.166418 59.610599 6.490940 -5.329998 -21.783537 0.000000 -0.000000 0.000000 3.537054 -6.867777 48.286023 -1.749871 -0.810818 -6.782567 0.171187 -2.663672 -3.312140 -14.462482 -9.093324 -23.921320 -2.552218 -5.520382 -0.956450 -30.055206 -28.303750 6.486403 -53.663132 -21.312693 27.503143 -17.314525 -48.093853 40.049607 5.422095 -23.212584 -2.339727 23.307497 26.341496 4.973019 41.784905 6.823812 3.785539 10.463079 17.398879 -27.207047 13.090463 21.601134 -41.831700 
-0.552050 0.369639 0.894014 -0.744530 -8.166187 99.187516 11.605488 9.756246 -40.504647 -5.972972 14.197591 52.015886 -6.730163 -0.299434 -14.019962 0.000000 -0.000000 0.000000 -18.958919 -7.340373 -45.659032 -5.520798 -7.662275 61.653895 6.520197 -6.262142 -22.913592 0.000000 -0.000000 0.000000 2.953494 -6.459926 47.465306 -1.652865 -1.129504 -6.121994 0.075974 -2.696955 -3.379635 -12.486364 -11.373438 -24.791690 -0.592605 -9.366085 -1.346130 -29.925703 -28.044252 6.832797 -53.391651 -21.708572 27.521958 -17.045331 -48.595570 39.985203 6.043037 -23.292582 -2.783482 23.421817 26.537266 5.146279 41.367880 7.019592 3.524213 10.722186 17.226419 -26.820151 14.034122 21.820686 -41.824252 
-0.554366 0.363239 0.891596 0.609106 -8.531124 99.624728 12.330140 9.657149 -40.358905 -4.586169 14.222623 45.387872 -5.683335 2.496503 -10.983929 0.000000 -0.000000 0.000000 -19.229002 -7.858467 -45.804485 -5.806188 -7.653080 62.773472 6.472934 -7.195920 -23.566896 0.000000 -0.000000 0.000000 2.499399 -6.150707 47.174834 -1.532942 -1.280517 -5.621251 0.152356 -2.810398 -3.630882 -10.613881 -13.194750 -25.634211 0.703724 -12.037311 -1.475371 -30.169880 -27.753871 7.114163 -52.914108 -22.097760 27.833297 -17.343387 -48.677339 40.745146 7.049158 -23.053749 -3.894651 23.584823 26.803690 5.087278 41.091622 6.924505 3.644982 11.012460 16.803329 -26.887313 13.746179 22.099293 -42.117287 
-0.554484 0.356655 0.889665 1.885124 -8.633065 99.816717 13.119926 9.585807 -40.178568 -4.556509 13.411474 39.548669 -6.416465 3.609694 -7.842926 0.000000 -0.000000 0.000000 -19.530582 -7.876195 -45.443196 -6.188715 -8.131068 63.880775 6.697474 -7.346324 -24.781537 0.000000 -0.000000 0.000000 2.203141 -5.684269 47.295296 -1.443566 -1.469632 -5.311277 0.265233 -2.852414 -4.143191 -9.217340 -14.107395 -25.735424 1.959720 -14.415508 -1.461057 -30.320907 -27.877380 7.444148 -53.022274 -22.070330 28.285656 -16.645700 -48.617965 40.159003 7.915349 -22.962757 -4.096623 23.859056 27.061492 5.085484 40.994605 6.660503 3.336929 11.276051 16.074039 -27.100644 13.433853 22.067489 -42.390107 
-0.551360 0.350156 0.887761 3.058749 -8.423811 100.015770 13.797115 9.791500 -40.666581 -4.447183 12.667572 36.157205 -7.514502 2.991772 -4.869845 0.000000 -0.000000 0.000000 -19.483125 -8.090149 -44.952067 -6.806706 -8.316893 64.373165 6.597064 -7.605413 -25.079937 0.000000 -0.000000 0.000000 1.960693 -5.419257 47.303558 -1.392821 -1.523935 -5.091290 0.296955 -2.741318 -4.117174 -7.896530 -14.858752 -25.883190 3.327190 -16.328936 -1.872699 -30.594687 -27.854646 7.826733 -52.763930 -22.388237 28.229184 -16.581891 -48.707935 39.911594 7.218863 -22.618849 -4.552795 24.211808 27.209726 5.491207 40.628785 6.798679 2.805798 11.764757 15.803330 -27.270485 11.759518 22.094433 -43.053528 
-0.545756 0.343461 0.886230 4.249358 -8.260068 100.251277 14.122342 9.915963 -41.458219 -4.281799 12.937752 34.370284 -8.148568 2.695869 -2.771726 0.000000 -0.000000 0.000000 -19.574141 -8.215611 -44.422012 -7.465699 -8.295727 64.728793 6.495784 -8.130561 -25.171429 0.000000 -0.000000 0.000000 1.774246 -4.954284 47.628331 -1.339533 -1.743675 -4.992507 0.399540 -2.850883 -4.450160 -6.687703 -16.028633 -25.814363 4.918232 -17.800812 -2.558125 -30.754941 -27.549953 7.940388 -53.011540 -22.416751 28.217984 -16.510372 -48.615053 39.793430 6.441730 -21.967602 -5.318534 24.412858 27.210245 5.680122 40.855191 6.605550 2.817505 11.167311 16.528416 -27.285044 10.668097 22.715790 -43.870150 
